<?xml version="1.0" standalone="yes"?>

<svg version="1.1" viewBox="0.0 0.0 510.54068241469815 508.2834645669291" fill="none" stroke="none" stroke-linecap="square" stroke-miterlimit="10" xmlns="http://www.w3.org/2000/svg" xmlns:xlink="http://www.w3.org/1999/xlink"><clipPath id="p.0"><path d="m0 0l510.54068 0l0 508.28348l-510.54068 0l0 -508.28348z" clip-rule="nonzero"></path></clipPath><g clip-path="url(#p.0)"><path fill="#000000" fill-opacity="0.0" d="m0 0l510.54068 0l0 508.28348l-510.54068 0z" fill-rule="evenodd"></path><path fill="#ffffff" d="m78.750015 77.62791l0 0c97.48912 -97.489136 255.55025 -97.489136 353.03937 0l0 0c46.81595 46.815933 73.11685 110.31196 73.11685 176.51968c0 66.20773 -26.300903 129.70377 -73.11685 176.51968l0 0c-97.489105 97.48917 -255.55023 97.48917 -353.03937 0l0 0c-97.489136 -97.489136 -97.489136 -255.55023 0 -353.03937z" fill-rule="evenodd"></path><path stroke="#ffffff" stroke-width="1.0" stroke-linejoin="round" stroke-linecap="butt" d="m78.750015 77.62791l0 0c97.48912 -97.489136 255.55025 -97.489136 353.03937 0l0 0c46.81595 46.815933 73.11685 110.31196 73.11685 176.51968c0 66.20773 -26.300903 129.70377 -73.11685 176.51968l0 0c-97.489105 97.48917 -255.55023 97.48917 -353.03937 0l0 0c-97.489136 -97.489136 -97.489136 -255.55023 0 -353.03937z" fill-rule="evenodd"></path><path fill="#000000" d="m213.00107 79.14583l32.820312 -5.835602l7.0477448 -27.175537l7.0477448 27.175537l32.820312 5.835602l-32.820312 5.835602l-7.0477448 27.175537l-7.0477448 -27.175537z" fill-rule="evenodd"></path><path fill="#000000" d="m170.20705 174.70728l28.949615 -5.835602l6.2165527 -27.175537l6.216568 27.175537l28.949615 5.835602l-28.949615 5.835602l-6.216568 27.175537l-6.2165527 -27.175537z" fill-rule="evenodd"></path><path fill="#000000" d="m223.07875 283.5608l28.949615 -5.835602l6.216568 -27.175552l6.2165527 27.175552l28.949615 5.835602l-28.949615 5.8355713l-6.2165527 27.175568l-6.216568 -27.175568z" fill-rule="evenodd"></path><path fill="#000000" d="m168.65608 337.98346l28.949615 -5.835602l6.2165527 -27.175537l6.216568 27.175537l28.9496 5.835602l-28.9496 5.8355713l-6.216568 27.175568l-6.2165527 -27.175568z" fill-rule="evenodd"></path><path fill="#000000" d="m137.09387 422.40918l28.949615 -5.835602l6.2165527 -27.175537l6.216568 27.175537l28.9496 5.835602l-28.9496 5.835602l-6.216568 27.175537l-6.2165527 -27.175537z" fill-rule="evenodd"></path><path fill="#000000" d="m320.8469 396.92026l28.949615 -5.835602l6.2165833 -27.175537l6.2165527 27.175537l28.949615 5.835602l-28.949615 5.835602l-6.2165527 27.175537l-6.2165833 -27.175537z" fill-rule="evenodd"></path><path fill="#000000" d="m313.27164 317.77188l28.949615 -5.835602l6.2165833 -27.175537l6.2165527 27.175537l28.949615 5.835602l-28.949615 5.835602l-6.2165527 27.175537l-6.2165833 -27.175537z" fill-rule="evenodd"></path><path fill="#000000" d="m330.35678 241.603l28.949615 -5.835602l6.2165527 -27.175537l6.2165833 27.175537l28.949615 5.835602l-28.949615 5.835602l-6.2165833 27.175537l-6.2165527 -27.175537z" fill-rule="evenodd"></path></g></svg>

