<?xml version="1.0" standalone="yes"?>

<svg version="1.1" viewBox="0.0 0.0 510.54068241469815 508.2834645669291" fill="none" stroke="none" stroke-linecap="square" stroke-miterlimit="10" xmlns="http://www.w3.org/2000/svg" xmlns:xlink="http://www.w3.org/1999/xlink"><clipPath id="p.0"><path d="m0 0l510.54068 0l0 508.28348l-510.54068 0l0 -508.28348z" clip-rule="nonzero"></path></clipPath><g clip-path="url(#p.0)"><path fill="#000000" fill-opacity="0.0" d="m0 0l510.54068 0l0 508.28348l-510.54068 0z" fill-rule="evenodd"></path><path fill="#434343" d="m78.75316 77.62476l0 0c97.4874 -97.4874 255.5457 -97.4874 353.03308 0l0 0c46.815125 46.815094 73.11557 110.30999 73.11557 176.51654c0 66.20654 -26.300446 129.70145 -73.11557 176.51654l0 0c-97.487366 97.48743 -255.54567 97.48743 -353.03308 0l0 0c-97.4874 -97.4874 -97.4874 -255.54568 0 -353.03308z" fill-rule="evenodd"></path><path stroke="#ffffff" stroke-width="1.0" stroke-linejoin="round" stroke-linecap="butt" d="m78.75316 77.62476l0 0c97.4874 -97.4874 255.5457 -97.4874 353.03308 0l0 0c46.815125 46.815094 73.11557 110.30999 73.11557 176.51654c0 66.20654 -26.300446 129.70145 -73.11557 176.51654l0 0c-97.487366 97.48743 -255.54567 97.48743 -353.03308 0l0 0c-97.4874 -97.4874 -97.4874 -255.54568 0 -353.03308z" fill-rule="evenodd"></path><path fill="#ffffff" d="m213.00107 79.14583l32.820312 -5.835602l7.0477448 -27.175537l7.0477448 27.175537l32.820312 5.835602l-32.820312 5.835602l-7.0477448 27.175537l-7.0477448 -27.175537z" fill-rule="evenodd"></path><path stroke="#ffffff" stroke-width="1.0" stroke-linejoin="round" stroke-linecap="butt" d="m213.00107 79.14583l32.820312 -5.835602l7.0477448 -27.175537l7.0477448 27.175537l32.820312 5.835602l-32.820312 5.835602l-7.0477448 27.175537l-7.0477448 -27.175537z" fill-rule="evenodd"></path><path fill="#ffffff" d="m170.20705 174.70728l28.949615 -5.835602l6.2165527 -27.175537l6.216568 27.175537l28.949615 5.835602l-28.949615 5.835602l-6.216568 27.175537l-6.2165527 -27.175537z" fill-rule="evenodd"></path><path stroke="#ffffff" stroke-width="1.0" stroke-linejoin="round" stroke-linecap="butt" d="m170.20705 174.70728l28.949615 -5.835602l6.2165527 -27.175537l6.216568 27.175537l28.949615 5.835602l-28.949615 5.835602l-6.216568 27.175537l-6.2165527 -27.175537z" fill-rule="evenodd"></path><path fill="#ffffff" d="m223.07875 283.5608l28.949615 -5.835602l6.216568 -27.175552l6.2165527 27.175552l28.949615 5.835602l-28.949615 5.8355713l-6.2165527 27.175568l-6.216568 -27.175568z" fill-rule="evenodd"></path><path stroke="#ffffff" stroke-width="1.0" stroke-linejoin="round" stroke-linecap="butt" d="m223.07875 283.5608l28.949615 -5.835602l6.216568 -27.175552l6.2165527 27.175552l28.949615 5.835602l-28.949615 5.8355713l-6.2165527 27.175568l-6.216568 -27.175568z" fill-rule="evenodd"></path><path fill="#ffffff" d="m168.65608 337.98346l28.949615 -5.835602l6.2165527 -27.175537l6.216568 27.175537l28.9496 5.835602l-28.9496 5.8355713l-6.216568 27.175568l-6.2165527 -27.175568z" fill-rule="evenodd"></path><path stroke="#ffffff" stroke-width="1.0" stroke-linejoin="round" stroke-linecap="butt" d="m168.65608 337.98346l28.949615 -5.835602l6.2165527 -27.175537l6.216568 27.175537l28.9496 5.835602l-28.9496 5.8355713l-6.216568 27.175568l-6.2165527 -27.175568z" fill-rule="evenodd"></path><path fill="#ffffff" d="m137.09387 422.40918l28.949615 -5.835602l6.2165527 -27.175537l6.216568 27.175537l28.9496 5.835602l-28.9496 5.835602l-6.216568 27.175537l-6.2165527 -27.175537z" fill-rule="evenodd"></path><path stroke="#ffffff" stroke-width="1.0" stroke-linejoin="round" stroke-linecap="butt" d="m137.09387 422.40918l28.949615 -5.835602l6.2165527 -27.175537l6.216568 27.175537l28.9496 5.835602l-28.9496 5.835602l-6.216568 27.175537l-6.2165527 -27.175537z" fill-rule="evenodd"></path><path fill="#ffffff" d="m320.8469 396.92026l28.949615 -5.835602l6.2165833 -27.175537l6.2165527 27.175537l28.949615 5.835602l-28.949615 5.835602l-6.2165527 27.175537l-6.2165833 -27.175537z" fill-rule="evenodd"></path><path stroke="#ffffff" stroke-width="1.0" stroke-linejoin="round" stroke-linecap="butt" d="m320.8469 396.92026l28.949615 -5.835602l6.2165833 -27.175537l6.2165527 27.175537l28.949615 5.835602l-28.949615 5.835602l-6.2165527 27.175537l-6.2165833 -27.175537z" fill-rule="evenodd"></path><path fill="#ffffff" d="m313.27164 317.77188l28.949615 -5.835602l6.2165833 -27.175537l6.2165527 27.175537l28.949615 5.835602l-28.949615 5.835602l-6.2165527 27.175537l-6.2165833 -27.175537z" fill-rule="evenodd"></path><path stroke="#ffffff" stroke-width="1.0" stroke-linejoin="round" stroke-linecap="butt" d="m313.27164 317.77188l28.949615 -5.835602l6.2165833 -27.175537l6.2165527 27.175537l28.949615 5.835602l-28.949615 5.835602l-6.2165527 27.175537l-6.2165833 -27.175537z" fill-rule="evenodd"></path><path fill="#ffffff" d="m330.35678 241.603l28.949615 -5.835602l6.2165527 -27.175537l6.2165833 27.175537l28.949615 5.835602l-28.949615 5.835602l-6.2165833 27.175537l-6.2165527 -27.175537z" fill-rule="evenodd"></path><path stroke="#ffffff" stroke-width="1.0" stroke-linejoin="round" stroke-linecap="butt" d="m330.35678 241.603l28.949615 -5.835602l6.2165527 -27.175537l6.2165833 27.175537l28.949615 5.835602l-28.949615 5.835602l-6.2165833 27.175537l-6.2165527 -27.175537z" fill-rule="evenodd"></path></g></svg>
