<?xml version="1.0" standalone="yes"?>

<svg version="1.1" viewBox="0.0 0.0 145.0551181102362 153.09186351706037" fill="none" stroke="none" stroke-linecap="square" stroke-miterlimit="10" xmlns="http://www.w3.org/2000/svg" xmlns:xlink="http://www.w3.org/1999/xlink"><clipPath id="p.0"><path d="m0 0l145.05511 0l0 153.09186l-145.05511 0l0 -153.09186z" clip-rule="nonzero"></path></clipPath><g clip-path="url(#p.0)"><path fill="#000000" fill-opacity="0.0" d="m0 0l145.05511 0l0 153.09186l-145.05511 0z" fill-rule="evenodd"></path><path fill="#000000" d="m14.964733 129.31157l0 0c1.8046875 1.015976 6.7236443 -4.655815 10.986797 -12.668297c4.263153 -8.012489 6.25613 -15.331505 4.4514446 -16.347488l0 0c-1.8046875 -1.015976 0.18829155 -8.334991 4.4514446 -16.34748c4.263153 -8.012482 9.18211 -13.684273 10.986797 -12.668289l26.14141 14.716743c-1.8046875 -1.015976 -6.723648 4.655815 -10.986801 12.668297c-4.2631493 8.012489 -6.25613 15.331505 -4.4514427 16.34748c1.8046875 1.0159836 -0.18829346 8.334999 -4.4514465 16.34748c-4.2631493 8.012482 -9.182106 13.68428 -10.9867935 12.668304z" fill-rule="evenodd"></path><path stroke="#000000" stroke-width="1.0" stroke-linejoin="round" stroke-linecap="butt" d="m14.964733 129.31157l0 0c1.8046875 1.015976 6.7236443 -4.655815 10.986797 -12.668297c4.263153 -8.012489 6.25613 -15.331505 4.4514446 -16.347488l0 0c-1.8046875 -1.015976 0.18829155 -8.334991 4.4514446 -16.34748c4.263153 -8.012482 9.18211 -13.684273 10.986797 -12.668289l26.14141 14.716743c-1.8046875 -1.015976 -6.723648 4.655815 -10.986801 12.668297c-4.2631493 8.012489 -6.25613 15.331505 -4.4514427 16.34748c1.8046875 1.0159836 -0.18829346 8.334999 -4.4514465 16.34748c-4.2631493 8.012482 -9.182106 13.68428 -10.9867935 12.668304z" fill-rule="evenodd"></path><path fill="#000000" d="m71.664474 85.630486l0 0c1.8898087 -0.8363571 6.266754 5.2873917 9.776184 13.67778c3.50943 8.390381 4.8223953 15.870132 2.9325943 16.70649l0 0c-1.889801 0.8363495 -0.57683563 8.316101 2.9325943 16.706482c3.5094376 8.390381 7.886383 14.514145 9.776184 13.67778l27.374336 -12.114838c-1.889801 0.8363495 -6.2667465 -5.2873993 -9.776184 -13.677788c-3.50943 -8.390381 -4.8223953 -15.870132 -2.9325943 -16.70649c1.8898087 -0.8363571 0.57683563 -8.316101 -2.9325943 -16.70649c-3.50943 -8.390381 -7.8863754 -14.51413 -9.776184 -13.6777725z" fill-rule="evenodd"></path><path stroke="#000000" stroke-width="1.0" stroke-linejoin="round" stroke-linecap="butt" d="m71.664474 85.630486l0 0c1.8898087 -0.8363571 6.266754 5.2873917 9.776184 13.67778c3.50943 8.390381 4.8223953 15.870132 2.9325943 16.70649l0 0c-1.889801 0.8363495 -0.57683563 8.316101 2.9325943 16.706482c3.5094376 8.390381 7.886383 14.514145 9.776184 13.67778l27.374336 -12.114838c-1.889801 0.8363495 -6.2667465 -5.2873993 -9.776184 -13.677788c-3.50943 -8.390381 -4.8223953 -15.870132 -2.9325943 -16.70649c1.8898087 -0.8363571 0.57683563 -8.316101 -2.9325943 -16.70649c-3.50943 -8.390381 -7.8863754 -14.51413 -9.776184 -13.6777725z" fill-rule="evenodd"></path><path fill="#000000" d="m26.599422 40.13425l12.187088 -8.538883l4.6554146 -13.815447l15.064415 -3.8909912E-4l12.187637 -8.538072l12.187645 8.538072l15.064415 3.8909912E-4l4.655411 13.815447l12.187088 8.538883l-4.654907 13.815872l4.654907 13.815868l-12.187088 8.538879l-4.655411 13.815453l-15.064415 3.8909912E-4l-12.187645 8.538071l-12.187637 -8.538071l-15.064415 -3.8909912E-4l-4.6554146 -13.815453l-12.187088 -8.538879l4.6549053 -13.815868z" fill-rule="evenodd"></path><path stroke="#ffffff" stroke-width="1.0" stroke-linejoin="round" stroke-linecap="butt" d="m26.599422 40.13425l12.187088 -8.538883l4.6554146 -13.815447l15.064415 -3.8909912E-4l12.187637 -8.538072l12.187645 8.538072l15.064415 3.8909912E-4l4.655411 13.815447l12.187088 8.538883l-4.654907 13.815872l4.654907 13.815868l-12.187088 8.538879l-4.655411 13.815453l-15.064415 3.8909912E-4l-12.187645 8.538071l-12.187637 -8.538071l-15.064415 -3.8909912E-4l-4.6554146 -13.815453l-12.187088 -8.538879l4.6549053 -13.815868z" fill-rule="evenodd"></path></g></svg>

