<svg version="1.1" viewBox="0.0 0.0 154.11548556430446 181.33333333333334" fill="none" stroke="none" stroke-linecap="square" stroke-miterlimit="10" xmlns:xlink="http://www.w3.org/1999/xlink" xmlns="http://www.w3.org/2000/svg"><clipPath id="p.0"><path d="m0 0l154.11548 0l0 181.33333l-154.11548 0l0 -181.33333z" clip-rule="nonzero"/></clipPath><g clip-path="url(#p.0)"><path fill="#000000" fill-opacity="0.0" d="m0 0l154.11548 0l0 181.33333l-154.11548 0z" fill-rule="evenodd"/><path fill="#000000" d="m33.167988 75.24406l0 0c0 -26.30093 24.042664 -47.622047 53.700787 -47.622047l0 0c29.658127 0 53.70079 21.321117 53.70079 47.622047l0 0c0 26.300934 -24.042664 47.622047 -53.70079 47.622047l0 0c-29.658123 0 -53.700787 -21.321114 -53.700787 -47.622047z" fill-rule="evenodd"/><path stroke="#000000" stroke-width="1.0" stroke-linejoin="round" stroke-linecap="butt" d="m33.167988 75.24406l0 0c0 -26.30093 24.042664 -47.622047 53.700787 -47.622047l0 0c29.658127 0 53.70079 21.321117 53.70079 47.622047l0 0c0 26.300934 -24.042664 47.622047 -53.70079 47.622047l0 0c-29.658123 0 -53.700787 -21.321114 -53.700787 -47.622047z" fill-rule="evenodd"/><path fill="#000000" d="m88.99342 13.6405735l0 0c0.5653305 -1.7858658 2.471901 -2.7770214 4.2584305 -2.213809l21.404404 6.7478285c0.8579254 0.27046394 1.5728607 0.870533 1.9875412 1.6681957c0.41468048 0.79766464 0.49512482 1.7275829 0.22364044 2.585186l-4.0944824 12.934383c-0.5653305 1.7858658 -2.471901 2.7770233 -4.2584305 2.21381l-21.404404 -6.7478294c-1.7865372 -0.56321144 -2.7765121 -2.467516 -2.2111816 -4.2533817z" fill-rule="evenodd"/><path stroke="#000000" stroke-width="1.0" stroke-linejoin="round" stroke-linecap="butt" d="m88.99342 13.6405735l0 0c0.5653305 -1.7858658 2.471901 -2.7770214 4.2584305 -2.213809l21.404404 6.7478285c0.8579254 0.27046394 1.5728607 0.870533 1.9875412 1.6681957c0.41468048 0.79766464 0.49512482 1.7275829 0.22364044 2.585186l-4.0944824 12.934383c-0.5653305 1.7858658 -2.471901 2.7770233 -4.2584305 2.21381l-21.404404 -6.7478294c-1.7865372 -0.56321144 -2.7765121 -2.467516 -2.2111816 -4.2533817z" fill-rule="evenodd"/><path fill="#000000" d="m130.81206 29.558006l0 0c1.5336456 -1.0697803 3.646515 -0.6954098 4.719223 0.83617973l12.902756 18.422129c0.5151367 0.7354965 0.71661377 1.6449432 0.56010437 2.5282784c-0.15652466 0.8833313 -0.6582031 1.66819 -1.3946838 2.181919l-11.107605 7.7480316c-1.5336456 1.0697784 -3.646515 0.69540787 -4.719223 -0.83618164l-12.902756 -18.42213c-1.0727234 -1.5315857 -0.69906616 -3.6404152 0.83457184 -4.7101936z" fill-rule="evenodd"/><path stroke="#000000" stroke-width="1.0" stroke-linejoin="round" stroke-linecap="butt" d="m130.81206 29.558006l0 0c1.5336456 -1.0697803 3.646515 -0.6954098 4.719223 0.83617973l12.902756 18.422129c0.5151367 0.7354965 0.71661377 1.6449432 0.56010437 2.5282784c-0.15652466 0.8833313 -0.6582031 1.66819 -1.3946838 2.181919l-11.107605 7.7480316c-1.5336456 1.0697784 -3.646515 0.69540787 -4.719223 -0.83618164l-12.902756 -18.42213c-1.0727234 -1.5315857 -0.69906616 -3.6404152 0.83457184 -4.7101936z" fill-rule="evenodd"/><path fill="#000000" d="m149.8293 80.34977l0 0c1.7162933 0.7508774 2.5007172 2.7516937 1.7520599 4.4689484l-8.973923 20.584412c-0.35951233 0.8246536 -1.031723 1.4722977 -1.8687286 1.8004456c-0.8370056 0.3281479 -1.7702484 0.3099289 -2.5944366 -0.05065918l-12.43045 -5.4383163c-1.7162857 -0.7508774 -2.5007095 -2.7516937 -1.7520599 -4.4689484l8.973938 -20.584412c0.74864197 -1.7172623 2.746872 -2.5006638 4.4631653 -1.749794z" fill-rule="evenodd"/><path stroke="#000000" stroke-width="1.0" stroke-linejoin="round" stroke-linecap="butt" d="m149.8293 80.34977l0 0c1.7162933 0.7508774 2.5007172 2.7516937 1.7520599 4.4689484l-8.973923 20.584412c-0.35951233 0.8246536 -1.031723 1.4722977 -1.8687286 1.8004456c-0.8370056 0.3281479 -1.7702484 0.3099289 -2.5944366 -0.05065918l-12.43045 -5.4383163c-1.7162857 -0.7508774 -2.5007095 -2.7516937 -1.7520599 -4.4689484l8.973938 -20.584412c0.74864197 -1.7172623 2.746872 -2.5006638 4.4631653 -1.749794z" fill-rule="evenodd"/><path fill="#000000" d="m128.03896 123.7832l0 0c0.8146515 1.6843948 0.1103363 3.7118073 -1.5731506 4.528351l-20.202782 9.79895c-0.80843353 0.3921051 -1.7391663 0.44683838 -2.5874481 0.15214539c-0.84828186 -0.294693 -1.5446167 -0.91467285 -1.9358292 -1.7235413l-5.9002686 -12.199478c-0.8146515 -1.6843948 -0.110328674 -3.7117996 1.5731506 -4.528343l20.202782 -9.79895c1.6834869 -0.8165436 3.7086258 -0.11300659 4.523285 1.5713882z" fill-rule="evenodd"/><path stroke="#000000" stroke-width="1.0" stroke-linejoin="round" stroke-linecap="butt" d="m128.03896 123.7832l0 0c0.8146515 1.6843948 0.1103363 3.7118073 -1.5731506 4.528351l-20.202782 9.79895c-0.80843353 0.3921051 -1.7391663 0.44683838 -2.5874481 0.15214539c-0.84828186 -0.294693 -1.5446167 -0.91467285 -1.9358292 -1.7235413l-5.9002686 -12.199478c-0.8146515 -1.6843948 -0.110328674 -3.7117996 1.5731506 -4.528343l20.202782 -9.79895c1.6834869 -0.8165436 3.7086258 -0.11300659 4.523285 1.5713882z" fill-rule="evenodd"/><path fill="#000000" d="m50.790028 75.2443l0 0c0 -19.673512 17.055485 -35.622047 38.094486 -35.622047l0 0c21.03901 0 38.09449 15.948536 38.09449 35.622047l0 0c0 19.673515 -17.055481 35.622047 -38.09449 35.622047l0 0c-21.039001 0 -38.094486 -15.948532 -38.094486 -35.622047z" fill-rule="evenodd"/><path stroke="#ffffff" stroke-width="1.0" stroke-linejoin="round" stroke-linecap="butt" d="m50.790028 75.2443l0 0c0 -19.673512 17.055485 -35.622047 38.094486 -35.622047l0 0c21.03901 0 38.09449 15.948536 38.09449 35.622047l0 0c0 19.673515 -17.055481 35.622047 -38.09449 35.622047l0 0c-21.039001 0 -38.094486 -15.948532 -38.094486 -35.622047z" fill-rule="evenodd"/><path fill="#000000" d="m0 38.992126l0 0c0 -21.534758 18.275244 -38.992126 40.818897 -38.992126l0 0c10.825844 0 21.20829 4.108087 28.863323 11.420529c7.6550217 7.312442 11.955574 17.230244 11.955574 27.571598l0 0c0 21.534756 -18.275242 38.992126 -40.818897 38.992126l0 0c-22.543653 0 -40.818897 -17.45737 -40.818897 -38.992126z" fill-rule="evenodd"/><path stroke="#ffffff" stroke-width="1.0" stroke-linejoin="round" stroke-linecap="butt" d="m0 38.992126l0 0c0 -21.534758 18.275244 -38.992126 40.818897 -38.992126l0 0c10.825844 0 21.20829 4.108087 28.863323 11.420529c7.6550217 7.312442 11.955574 17.230244 11.955574 27.571598l0 0c0 21.534756 -18.275242 38.992126 -40.818897 38.992126l0 0c-22.543653 0 -40.818897 -17.45737 -40.818897 -38.992126z" fill-rule="evenodd"/><path fill="#000000" d="m0 177.29134l0 -49.65354l0 0c-1.2042569E-14 -27.422897 18.775839 -49.65354 41.937008 -49.65354c23.161167 0 41.937008 22.230644 41.937008 49.65354l0 49.65354z" fill-rule="evenodd"/><path stroke="#ffffff" stroke-width="1.0" stroke-linejoin="round" stroke-linecap="butt" d="m0 177.29134l0 -49.65354l0 0c-1.2042569E-14 -27.422897 18.775839 -49.65354 41.937008 -49.65354c23.161167 0 41.937008 22.230644 41.937008 49.65354l0 49.65354z" fill-rule="evenodd"/></g></svg>